# xmcd CD database file
#
# Track frame offsets:
#	182
#	14477
#	25957
#	37452
#	49340
#	59257
#	71910
#	83027
#	97010
#	109467
#	120772
#	133020
#	145360
#	157697
#	169555
#
# Disc length: 2404 seconds
#
# Revision: 0
# Processed by: cddbd v1.5.1PL0 Copyright (c) Steve Scherf et al.
# Submitted via: CDex 1.51
#
DISCID=d309620f
DTITLE=Mills Brothers - The Mills Brothers meet the Big Bands
DYEAR=1900
DGENRE=Jazz
TTITLE0=Be My Life´s Companion
TTITLE1=Pretty Butterfly
TTITLE2=A Carnival In Venice
TTITLE3=The Glow-Worm
TTITLE4=I Wish I Could Afford To Live The Life I´m Livin´
TTITLE5=Say Si Si
TTITLE6=I Don´t Mind Being All Alone
TTITLE7=After All
TTITLE8=Nevertheless
TTITLE9=Twice As Much
TTITLE10=If You Didn´t Cry
TTITLE11=Who Put The Evil In Evelyn´s Eyes
TTITLE12=This One Today - That One Tomorrow
TTITLE13=A Shoulder To Weep On
TTITLE14=The Window Washer Man
EXTD=
EXTT0=
EXTT1=
EXTT2=
EXTT3=
EXTT4=
EXTT5=
EXTT6=
EXTT7=
EXTT8=
EXTT9=
EXTT10=
EXTT11=
EXTT12=
EXTT13=
EXTT14=
PLAYORDER=
